<svg id="Layer_1" data-name="Layer 1" xmlns="http://www.w3.org/2000/svg" xmlns:xlink="http://www.w3.org/1999/xlink" viewBox="0 0 579.38 456.71"><defs><style>.cls-1{fill:#616262;}.cls-2{fill:#fcee23;stroke:#f89521;stroke-width:9px;}.cls-10,.cls-11,.cls-12,.cls-2,.cls-4,.cls-5,.cls-6,.cls-7,.cls-8,.cls-9{stroke-miterlimit:10;}.cls-3{fill:#bdbec0;}.cls-4{fill:#3db54a;stroke:#bdbec0;isolation:isolate;opacity:0.83;}.cls-5{fill:#58595b;}.cls-10,.cls-11,.cls-12,.cls-5,.cls-6,.cls-9{stroke:#231f20;}.cls-10,.cls-11,.cls-12,.cls-5,.cls-6,.cls-7,.cls-9{stroke-width:3px;}.cls-6{fill:none;}.cls-7{fill:#ee2a7b;}.cls-7,.cls-8{stroke:#ee2a7b;}.cls-8{fill:#009444;stroke-width:7px;}.cls-9{fill:url(#linear-gradient);}.cls-10{fill:url(#linear-gradient-2);}.cls-11{fill:url(#linear-gradient-3);}.cls-12{fill:url(#linear-gradient-4);}</style><linearGradient id="linear-gradient" x1="541.43" y1="296.84" x2="541.43" y2="233.27" gradientUnits="userSpaceOnUse"><stop offset="0.01" stop-color="#118040"/><stop offset="0.05" stop-color="#2c9342"/><stop offset="0.11" stop-color="#47a543"/><stop offset="0.16" stop-color="#5ab344"/><stop offset="0.22" stop-color="#65ba45"/><stop offset="0.28" stop-color="#69bd45"/><stop offset="0.67" stop-color="#74c15d"/><stop offset="0.89" stop-color="#fddc46"/><stop offset="1" stop-color="#bda02f"/></linearGradient><linearGradient id="linear-gradient-2" x1="462.58" y1="296.84" x2="462.58" y2="233.27" xlink:href="#linear-gradient"/><linearGradient id="linear-gradient-3" x1="541.43" y1="389.85" x2="541.43" y2="326.27" xlink:href="#linear-gradient"/><linearGradient id="linear-gradient-4" x1="462.58" y1="389.85" x2="462.58" y2="326.27" xlink:href="#linear-gradient"/></defs><rect class="cls-1" x="198.19" width="185.98" height="185.98" rx="29.35"/><path class="cls-2" d="M317.63,196.09" transform="translate(-26.46 -160.27)"/><path class="cls-3" d="M234.68,197H400.21a1.09,1.09,0,0,0,0-2.18H234.68A1.09,1.09,0,0,0,234.68,197Z" transform="translate(-26.46 -160.27)"/><path class="cls-3" d="M234.86,290.51H400.4a1.09,1.09,0,0,0,0-2.18H234.86A1.09,1.09,0,0,0,234.86,290.51Z" transform="translate(-26.46 -160.27)"/><path class="cls-3" d="M234.86,259.4H400.4a1.09,1.09,0,0,0,0-2.18H234.86A1.09,1.09,0,0,0,234.86,259.4Z" transform="translate(-26.46 -160.27)"/><path class="cls-3" d="M234.86,228.29H400.4a1.09,1.09,0,0,0,0-2.18H234.86A1.09,1.09,0,0,0,234.86,228.29Z" transform="translate(-26.46 -160.27)"/><path class="cls-3" d="M234.86,321.62H400.4a1.09,1.09,0,0,0,0-2.18H234.86A1.09,1.09,0,0,0,234.86,321.62Z" transform="translate(-26.46 -160.27)"/><rect class="cls-4" x="208.32" y="131.57" width="165.72" height="26.56" rx="4.36"/><rect class="cls-1" x="393.41" width="185.98" height="185.98" rx="29.35"/><path class="cls-2" d="M512.85,196.09" transform="translate(-26.46 -160.27)"/><path class="cls-3" d="M429.9,197H595.44a1.09,1.09,0,0,0,0-2.18H429.9A1.09,1.09,0,0,0,429.9,197Z" transform="translate(-26.46 -160.27)"/><path class="cls-3" d="M430.08,290.51H595.62a1.09,1.09,0,0,0,0-2.18H430.08A1.09,1.09,0,0,0,430.08,290.51Z" transform="translate(-26.46 -160.27)"/><path class="cls-3" d="M430.08,259.4H595.62a1.09,1.09,0,0,0,0-2.18H430.08A1.09,1.09,0,0,0,430.08,259.4Z" transform="translate(-26.46 -160.27)"/><path class="cls-3" d="M430.08,228.29H595.62a1.09,1.09,0,0,0,0-2.18H430.08A1.09,1.09,0,0,0,430.08,228.29Z" transform="translate(-26.46 -160.27)"/><path class="cls-3" d="M430.08,321.62H595.62a1.09,1.09,0,0,0,0-2.18H430.08A1.09,1.09,0,0,0,430.08,321.62Z" transform="translate(-26.46 -160.27)"/><rect class="cls-4" x="403.54" y="69.21" width="165.72" height="26.56" rx="4.36"/><rect class="cls-1" width="185.98" height="185.98" rx="29.35"/><path class="cls-2" d="M119.44,196.09" transform="translate(-26.46 -160.27)"/><path class="cls-3" d="M36.49,197H202a1.09,1.09,0,0,0,0-2.18H36.49A1.09,1.09,0,0,0,36.49,197Z" transform="translate(-26.46 -160.27)"/><path class="cls-3" d="M36.68,290.51H202.21a1.09,1.09,0,0,0,0-2.18H36.68A1.09,1.09,0,0,0,36.68,290.51Z" transform="translate(-26.46 -160.27)"/><path class="cls-3" d="M36.68,259.4H202.21a1.09,1.09,0,0,0,0-2.18H36.68A1.09,1.09,0,0,0,36.68,259.4Z" transform="translate(-26.46 -160.27)"/><path class="cls-3" d="M36.68,228.29H202.21a1.09,1.09,0,0,0,0-2.18H36.68A1.09,1.09,0,0,0,36.68,228.29Z" transform="translate(-26.46 -160.27)"/><path class="cls-3" d="M36.68,321.62H202.21a1.09,1.09,0,0,0,0-2.18H36.68A1.09,1.09,0,0,0,36.68,321.62Z" transform="translate(-26.46 -160.27)"/><rect class="cls-4" x="10.13" y="37.94" width="165.72" height="26.56" rx="4.36"/><path class="cls-5" d="M434.19,495.39A120.09,120.09,0,1,1,314.1,375.29,120.08,120.08,0,0,1,434.19,495.39Z" transform="translate(-26.46 -160.27)"/><line class="cls-6" x1="205" y1="418.64" x2="205" y2="418.64"/><circle class="cls-7" cx="291.18" cy="332.55" r="8.42"/><line class="cls-8" x1="217.1" y1="266.06" x2="291.18" y2="332.55"/><line class="cls-6" x1="167.55" y1="332.55" x2="197.55" y2="332.55"/><line class="cls-6" x1="407.73" y1="332.55" x2="377.73" y2="332.55"/><line class="cls-6" x1="291.18" y1="215.02" x2="291.18" y2="245.02"/><line class="cls-6" x1="291.18" y1="455.21" x2="291.18" y2="425.21"/><rect class="cls-6" x="438.58" y="233.27" width="48" height="63.58" rx="15.96"/><rect class="cls-6" x="438.58" y="326.27" width="48" height="63.58" rx="15.96"/><rect class="cls-6" x="517.43" y="326.27" width="48" height="63.58" rx="15.96"/><rect class="cls-9" x="517.43" y="233.27" width="48" height="63.58" rx="15.96"/><rect class="cls-10" x="438.58" y="233.27" width="48" height="63.58" rx="15.96"/><rect class="cls-11" x="517.43" y="326.27" width="48" height="63.58" rx="15.96"/><rect class="cls-12" x="438.58" y="326.27" width="48" height="63.58" rx="15.96"/></svg>