<svg id="Layer_1" data-name="Layer 1" xmlns="http://www.w3.org/2000/svg" viewBox="0 0 426.42 426.42"><defs><style>.cls-1{fill:#606161;}.cls-2{fill:#fff200;stroke:#f7941d;stroke-width:9px;}.cls-2,.cls-4{stroke-miterlimit:10;}.cls-3{fill:#bcbec0;}.cls-4{fill:#39b54a;stroke:#bcbec0;opacity:0.83;}</style></defs><rect class="cls-1" width="426.42" height="426.42" rx="67.3"/><path class="cls-2" d="M331,268.56" transform="translate(-117.77 -186.43)"/><path class="cls-3" d="M140.78,270.61H520.33c3.22,0,3.23-5,0-5H140.78c-3.22,0-3.22,5,0,5Z" transform="translate(-117.77 -186.43)"/><path class="cls-3" d="M141.2,485.06H520.75c3.22,0,3.23-5,0-5H141.2c-3.22,0-3.23,5,0,5Z" transform="translate(-117.77 -186.43)"/><path class="cls-3" d="M141.2,413.72H520.75c3.22,0,3.23-5,0-5H141.2c-3.22,0-3.23,5,0,5Z" transform="translate(-117.77 -186.43)"/><path class="cls-3" d="M141.2,342.39H520.75c3.22,0,3.23-5,0-5H141.2c-3.22,0-3.23,5,0,5Z" transform="translate(-117.77 -186.43)"/><path class="cls-3" d="M141.2,556.39H520.75c3.22,0,3.23-5,0-5H141.2c-3.22,0-3.23,5,0,5Z" transform="translate(-117.77 -186.43)"/><rect class="cls-4" x="23.22" y="87.34" width="379.97" height="60.89" rx="10"/></svg>